<?xml version="1.0" encoding="UTF-8"?>
<svg id="Layer_1" xmlns="http://www.w3.org/2000/svg" viewBox="0 0 841.89 595.28">
  <defs>
    <style>
      .cls-1 {
        fill: #d4410a;
      }
    </style>
  </defs>
  <path class="cls-1" d="M423.11,279.47c-1.72,0-3.44,0-5.16,0-1.44,0-2.51,1.04-2.51,2.45,0,1.39,1.04,2.4,2.49,2.4,2.41,0,4.83,0,7.24,0,2.48,0,4.57,1.79,5.03,4.3.42,2.29-1.01,4.89-3.21,5.68-.65.24-1.38.38-2.07.39-2.52.05-5.05.05-7.57.01-1.89-.03-3.31-.91-4.16-2.63-1.33-2.72-2.67-5.43-3.99-8.16-.23-.47-.62-.61-1.08-.62-.6-.02-1.2,0-1.8,0-.64-.01-1.07-.44-1.05-1.02.02-.58.41-.94,1.07-.95.73,0,1.45-.02,2.18,0,1.07.02,1.88.5,2.35,1.47,1.16,2.38,2.3,4.77,3.47,7.15.38.77.68,1.6,1.43,2.13.52.37,1.07.6,1.71.6,2.52,0,5.05,0,7.57-.02,1.69-.01,3.12-1.48,3.12-3.18,0-1.67-1.37-3.05-3.09-3.06-2.43-.02-4.86,0-7.29,0-2.02-.01-3.75-1.34-4.29-3.24-.79-2.83,1.31-5.75,4.26-5.79,3.55-.05,7.1-.02,10.65-.01.69,0,1.13.43,1.14,1.06,0,.62-.44,1.03-1.15,1.03-1.77,0-3.53,0-5.3,0,0,0,0,0,0,0Z"/>
  <path class="cls-1" d="M416.92,297.62c0-.91.7-1.66,1.58-1.65.82,0,1.54.72,1.55,1.54.01.92-.69,1.64-1.59,1.64-.86,0-1.53-.67-1.54-1.52Z"/>
  <path class="cls-1" d="M426.77,297.54c0,.96-.65,1.62-1.6,1.61-.81,0-1.52-.73-1.52-1.57,0-.89.74-1.64,1.63-1.63.83.01,1.5.72,1.5,1.58Z"/>
</svg>