<?xml version="1.0" encoding="UTF-8"?>
<svg id="Layer_1" xmlns="http://www.w3.org/2000/svg" viewBox="0 0 841.89 595.28">
  <defs>
    <style>
      .cls-1 {
        fill: #d4410a;
      }
    </style>
  </defs>
  <path class="cls-1" d="M456.66,217c-11.53,0-23.05-.01-34.58,0-9.67.01-16.8,6.99-16.81,16.43-.01,9.29,6.99,16.07,16.71,16.09,16.18.04,32.36.04,48.54.06,16.62.02,30.64,12,33.74,28.81,2.83,15.33-6.79,32.77-21.49,38.11-4.38,1.59-9.22,2.51-13.88,2.6-16.91.31-33.84.36-50.75.08-12.68-.21-22.2-6.08-27.88-17.64-8.94-18.21-17.88-36.43-26.75-54.68-1.53-3.15-4.14-4.06-7.24-4.15-4.02-.1-8.04,0-12.05-.07-4.27-.07-7.17-2.93-7.06-6.84.11-3.92,2.74-6.29,7.16-6.34,4.86-.05,9.73-.1,14.59-.02,7.19.12,12.58,3.34,15.76,9.85,7.78,15.96,15.44,31.98,23.24,47.92,2.54,5.19,4.59,10.72,9.62,14.3,3.47,2.47,7.19,4,11.47,3.99,16.92-.02,33.84-.01,50.76-.13,11.33-.08,20.89-9.92,20.9-21.3,0-11.21-9.17-20.44-20.7-20.52-16.28-.12-32.57.03-48.85-.06-13.53-.07-25.17-8.95-28.75-21.74-5.33-19,8.81-38.56,28.56-38.84,23.79-.33,47.59-.12,71.38-.07,4.64,0,7.58,2.9,7.63,7.14.05,4.17-2.92,6.91-7.71,6.93-11.84.04-23.69.01-35.53.01,0,.02,0,.04,0,.06Z"/>
  <path class="cls-1" d="M415.1,338.66c-.06-6.13,4.7-11.1,10.61-11.08,5.49.02,10.31,4.81,10.39,10.31.08,6.16-4.63,11.01-10.68,10.99-5.78-.02-10.26-4.46-10.31-10.22Z"/>
  <path class="cls-1" d="M481.14,338.15c0,6.43-4.39,10.85-10.73,10.82-5.46-.03-10.18-4.89-10.2-10.51-.03-5.97,4.99-10.98,10.9-10.89,5.55.08,10.03,4.82,10.03,10.58Z"/>
</svg>