<?xml version="1.0" encoding="UTF-8"?>
<svg xmlns="http://www.w3.org/2000/svg" version="1.1" viewBox="322.03 270.36 215.95 41.79">
  <defs>
    <style>
      .cls-1 {
        font-size: 96.2px;
      }

      .cls-1, .cls-2, .cls-3 {
        display: none;
      }

      .cls-1, .cls-4 {
        fill: #231f20;
      }

      .cls-2, .cls-5 {
        fill: #d4410a;
      }

      .cls-6 {
        font-family: Aminute-Regular, Aminute;
      }

      .cls-7 {
        font-family: RobotHeroes, 'Robot Heroes';
      }
    </style>
  </defs>
  <!-- Generator: Adobe Illustrator 28.6.0, SVG Export Plug-In . SVG Version: 1.2.0 Build 709)  -->
  <g>
    <g id="Layer_1">
      <g>
        <path class="cls-4" d="M388.3,276.1h28.5v24.7h-28.5v-24.7ZM394,281.8v13.3h17.1v-13.3h-17.1ZM401.6,274.2h-5.7v-5.7h5.7v5.7ZM409.2,274.2h-5.7v-5.7h5.7v5.7Z"/>
        <path class="cls-4" d="M439.1,285.3v14.6h-3.2v-14.6c0-2.5-.9-4.4-3.4-4.4-4.7,0-7.6,4.7-7.6,9.1v9.9h-3.2v-21.3h3.2v4.7h.3c1.3-2.7,3.2-5.6,7.2-5.6s6.6,3.4,6.6,7.7Z"/>
        <path class="cls-4" d="M461.9,297.6l-.7,3.2c-1.2-.3-3.2-1.5-4.3-3.6h-.5c-.9.9-2.6,3.8-6.9,3.8-6,0-9.2-4.6-9.2-8.9s2.5-8.2,9.2-8.2,6.2,3.5,6.2,3.5h.4c-.4-3.3-2.1-6.6-7.4-6.6s-3.9.5-5.2,1.5l-2-2.5c1.9-1.5,4.3-2.2,7.2-2.2,8.5,0,10.7,5.8,10.7,11.6,0,0-.2,4-.2,4.7,0,3,2.3,3.6,2.6,3.7ZM456,292.4c0-2.6-2.5-5.3-6.5-5.3s-5.9,1-5.9,5,2.1,5.6,6,5.6,6.4-3.3,6.4-5.3Z"/>
        <path class="cls-4" d="M462.9,275.9v-3.5h3.2v3.5h-3.2ZM462.9,299.9v-21.3h3.2v21.3h-3.2Z"/>
        <path class="cls-4" d="M485.6,278.5v21.3c0,2.3.1,9.9-7.4,9.9s-8.3-4.4-8.3-4.4l2-2.3s2,3.4,6,3.4,4.5-4.4,4.5-6.7v-4.8h-.3c-1.3,2.7-3.2,5.6-7.2,5.6s-6.6-3.3-6.6-7.7v-14.5h3.2v14.5c0,2.5.9,4.4,3.4,4.4,4.6,0,7.6-4.7,7.6-9v-9.9h3.2Z"/>
        <path class="cls-4" d="M508.6,297.6l-.7,3.2c-1.2-.3-3.2-1.5-4.3-3.6h-.5c-.9.9-2.6,3.8-6.9,3.8-6,0-9.2-4.6-9.2-8.9s2.5-8.2,9.2-8.2,6.2,3.5,6.2,3.5h.4c-.4-3.3-2.1-6.6-7.4-6.6s-3.9.5-5.2,1.5l-2-2.5c1.9-1.5,4.3-2.2,7.2-2.2,8.5,0,10.7,5.8,10.7,11.6,0,0-.2,4-.2,4.7,0,3,2.3,3.6,2.6,3.7ZM502.7,292.4c0-2.6-2.5-5.3-6.5-5.3s-5.9,1-5.9,5,2.1,5.6,6,5.6,6.4-3.3,6.4-5.3Z"/>
        <path class="cls-4" d="M530.4,297.6l-.7,3.2c-1.2-.3-3.2-1.5-4.3-3.6h-.5c-.9.9-2.6,3.8-6.9,3.8-6,0-9.2-4.6-9.2-8.9s2.5-8.2,9.2-8.2,6.2,3.5,6.2,3.5h.4c-.4-3.3-2.1-6.6-7.4-6.6s-3.9.5-5.2,1.5l-2-2.5c1.9-1.5,4.3-2.2,7.2-2.2,8.5,0,10.7,5.8,10.7,11.6,0,0-.2,4-.2,4.7,0,3,2.3,3.6,2.6,3.7ZM524.4,292.4c0-2.6-2.5-5.3-6.5-5.3s-5.9,1-5.9,5,2.1,5.6,6,5.6,6.4-3.3,6.4-5.3Z"/>
      </g>
      <path class="cls-5" d="M370.5,268.5c-3.9,0-7.8,0-11.6,0-3.3,0-5.6,2.3-5.7,5.5,0,3.1,2.4,5.4,5.6,5.4,5.4,0,10.9,0,16.3,0,5.6,0,10.3,4,11.3,9.7,1,5.2-2.3,11-7.2,12.8-1.5.5-3.1.8-4.7.9-5.7.1-11.4.1-17.1,0-4.3,0-7.5-2-9.4-5.9-3-6.1-6-12.3-9-18.4-.5-1.1-1.4-1.4-2.4-1.4-1.4,0-2.7,0-4.1,0-1.4,0-2.4-1-2.4-2.3,0-1.3.9-2.1,2.4-2.1,1.6,0,3.3,0,4.9,0,2.4,0,4.2,1.1,5.3,3.3,2.6,5.4,5.2,10.8,7.8,16.1.9,1.7,1.5,3.6,3.2,4.8,1.2.8,2.4,1.3,3.9,1.3,5.7,0,11.4,0,17.1,0,3.8,0,7-3.3,7-7.2,0-3.8-3.1-6.9-7-6.9-5.5,0-11,0-16.4,0-4.6,0-8.5-3-9.7-7.3-1.8-6.4,3-13,9.6-13.1,8-.1,16,0,24,0,1.6,0,2.5,1,2.6,2.4,0,1.4-1,2.3-2.6,2.3-4,0-8,0-11.9,0,0,0,0,0,0,0Z"/>
      <path class="cls-5" d="M356.6,309.4c0-2.1,1.6-3.7,3.6-3.7,1.8,0,3.5,1.6,3.5,3.5,0,2.1-1.6,3.7-3.6,3.7-1.9,0-3.5-1.5-3.5-3.4Z"/>
      <path class="cls-5" d="M378.8,309.2c0,2.2-1.5,3.6-3.6,3.6-1.8,0-3.4-1.6-3.4-3.5,0-2,1.7-3.7,3.7-3.7,1.9,0,3.4,1.6,3.4,3.6Z"/>
      <path class="cls-5" d="M467.8,273.3c0,2.2-1.5,3.6-3.6,3.6-1.8,0-3.4-1.6-3.4-3.5,0-2,1.7-3.7,3.7-3.7,1.9,0,3.4,1.6,3.4,3.6Z"/>
      <text class="cls-1" transform="translate(332.1 420.8)"><tspan class="cls-7" x="0" y="0">ö</tspan><tspan class="cls-6" x="79.8" y="0">naiyaa</tspan></text>
      <path class="cls-2" d="M528.5,355.2c0,5.3-3.6,9-8.9,9-4.5,0-8.5-4.1-8.5-8.7,0-5,4.1-9.1,9.1-9,4.6,0,8.3,4,8.3,8.8Z"/>
      <g class="cls-3">
        <path d="M298.5,393.2c10.9-4.5,21.2,1.1,24.5,10.8,3.2,9.5-2.6,20.3-12.3,23.2-9.6,2.8-19.4-2.4-22-10.6,2.1-.8,4.2-1.5,6.6-2.4.2.4.6,1,1,1.6,2.7,4.1,7.7,5.9,12.4,4.4,4.4-1.4,7.9-6.2,7.9-10.9,0-4.8-3.3-9-8-10.3-4.6-1.2-9.5,1-12.2,5-2.1,3.2-4.5,6.2-7,9-2.3,2.5-5.4,3.7-8.8,3.5-4.1-.2-8.2-.6-12.4-.7-6.8-.2-13.6-.2-20.4-.3-.4,0-1,.5-1.2,1-3.2,6.9-8.5,10.9-16.1,11.3-10.8.6-20.1-9-18.8-19.7,1.3-10.8,10.9-18.2,21.6-16.4,6.7,1.1,11.2,5.1,13.6,11.5.4,1.1.9,1.6,2.1,1.6,9.3,0,18.6,0,27.9,0,5.5,0,9.9-4.1,10.2-9.4.3-4.3-2.5-7.8-6.8-8.5-.9-.1-1.8-.2-2.6-.2-9.1,0-18.1,0-27.2,0-8.7,0-16.4-6.6-17.5-14.8-1.5-11.4,8-22.6,19.4-22.7,12-.1,24,0,36,0,3.9,0,7.5,1.3,10.4,3.9,3.1,2.8,5.9,5.7,8.8,8.7,1.3,1.3,1,2.6-.4,3.9-1.5,1.4-2.5,1.4-3.8.1-3.2-3.1-6.8-5.6-11.3-6.2-1.6-.2-3.1-.4-4.7-.4-11.5,0-23,0-34.5,0-3,0-5.7,1.1-7.6,3.6-2.1,2.7-2.7,5.7-1.1,8.9,1.5,3,4.1,4.6,7.5,4.6,9.2,0,18.5,0,27.7,0,3.4,0,6.7.6,9.7,2.3,5.2,2.9,8.1,7.3,9.1,13.1,0,.5.2.9.2,1.6ZM239.4,404.6c-1.6-4.1-6.5-6.7-11.3-5.8-5.3,1-9.4,5.7-9.4,11.1,0,5.1,3.7,9.5,9,10.6,4.4.9,9.4-1.3,11-5.1-.6,0-1.2-.2-1.7-.3-2.2-.5-4.4-.9-6.6-1.4-1.9-.5-3-2-3.1-3.6,0-1.4,1.1-2.9,2.9-3.6.5-.2,1.1-.4,1.7-.5,2.5-.5,5-.9,7.6-1.4Z"/>
        <path class="cls-5" d="M218.2,374.7c-3.2,0-6.5,0-9.7,0-2.3,0-3.3-1.3-2.7-3.5,2-6.4,3.9-12.8,6-19.1.5-1.7,1.9-2.4,3.5-2.4,6,0,11.9,0,17.9,0,.8,0,1.9.7,2.3,1.4.6,1,.4,2.1-.4,3.1-3.4,3.9-5.4,8.4-5.9,13.6-.2,1.8,0,3.6.2,5.4.2,1.3-.2,1.6-1.4,1.6-3.2,0-6.5,0-9.7,0,0,0,0,0,0,0Z"/>
        <path class="cls-5" d="M307.9,335.4c-2.7,0-5.3,0-7.9,0-.9,0-2-.3-2.3.8-.2.8.1,1.8.6,2.5,1.1,1.6,2.8,2.4,4.7,2.9,1.3.3,2.6.7,3.9.9.8.2,1.1.6.8,1.2-1,2.2-2.1,4.3-3.2,6.4-.6,1-1.4.9-2.3.2-2.8-2.5-5.9-4.7-9.7-5.4-2.5-.5-5.2-.5-7.7-.5-1.9,0-2.2,0-2.7-1.9-2.2-9.4,4.3-18,13.4-17.8,6.2.1,11.7,4.8,12.4,10.6Z"/>
        <path class="cls-5" d="M188.6,403c-7.2-.4-13.2-.8-19.2-1.2-.2,0-.4,0-.6,0-.4-.2-.7-.6-1.1-.8.4-.3.7-.7,1.1-.8,1.5-.2,3-.3,4.6-.4,10.2-.4,20.4-.7,30.7-1.1,1.4,0,2.4.9,2.4,2,0,1.3-1,2.3-2.6,2.3-5.5,0-11,0-15.3,0Z"/>
        <path class="cls-5" d="M199.4,388.7c5,0,9.9,0,14.9,0,1.6,0,2.6.8,2.6,2,0,1.3-1.1,2.3-2.6,2.2-10.2-.4-20.4-.9-30.6-1.4-.4,0-.8-.5-1.2-.8.5-.3.9-.8,1.4-.8,5.2-.3,10.4-.6,15.6-.9,0,0,0-.2,0-.3Z"/>
        <path class="cls-5" d="M233,383.3c-.7,0-1.2,0-1.7,0-1.1,0-2.2-.2-3.2,0-5.6,1.2-10.6-1.3-15.8-2.5-.4,0-.8-.2-1.1-.4-.4-.5-.7-1.1-1-1.6.5-.2,1.1-.7,1.6-.7,5.8,0,11.7,0,17.5,0,.5,0,1.1.4,1.4.9.8,1.3,1.4,2.7,2.3,4.4Z"/>
        <path class="cls-5" d="M189.5,410.2c3.9,0,7.8,0,11.6,0,2,0,3,.7,3,2,0,1.4-1,2.2-3,2.1-8.3-.3-16.5-.7-24.8-1.1-.4,0-.8-.6-1.3-.9.5-.3.9-.8,1.4-.8,4.3-.3,8.6-.6,13-.9,0-.1,0-.3,0-.4Z"/>
        <path class="cls-5" d="M305.5,414.6c-2.9,0-5.2-2.1-5.2-4.9,0-2.7,2.6-5.3,5.4-5.2,2.7,0,4.9,2.3,4.9,5,0,2.8-2.2,5-5,5.1Z"/>
      </g>
    </g>
  </g>
</svg>