<?xml version="1.0" encoding="UTF-8"?>
<svg id="Layer_1" xmlns="http://www.w3.org/2000/svg" viewBox="163.47 215.27 533.45 145.75">
  <defs>
    <style>
      .cls-1 {
        fill: #231f20;
        font-size: 96.18px;
      }

      .cls-2 {
        font-family: Aminute-Regular, Aminute;
      }

      .cls-3 {
        font-family: RobotHeroes, 'Robot Heroes';
      }

      .cls-4 {
        fill: #d4410a;
      }
    </style>
  </defs>
  <text class="cls-1" transform="translate(326.54 316.91)"><tspan class="cls-3" x="0" y="0">ö</tspan><tspan class="cls-2" x="79.84" y="0">naiyaa</tspan></text>
  <path class="cls-4" d="M282.66,239.37c-9.57,0-19.15,0-28.72,0-8.03.01-13.95,5.8-13.96,13.64-.01,7.72,5.81,13.35,13.88,13.36,13.44.03,26.87.03,40.31.05,13.8.02,25.44,9.97,28.02,23.93,2.35,12.73-5.64,27.22-17.85,31.65-3.63,1.32-7.66,2.09-11.52,2.16-14.05.26-28.1.3-42.15.06-10.53-.18-18.44-5.05-23.15-14.65-7.43-15.13-14.85-30.26-22.22-45.41-1.27-2.61-3.44-3.38-6.01-3.44-3.34-.09-6.67,0-10.01-.05-3.55-.06-5.96-2.43-5.87-5.68.09-3.25,2.28-5.22,5.94-5.26,4.04-.04,8.08-.08,12.12-.01,5.97.1,10.45,2.77,13.09,8.18,6.46,13.25,12.82,26.56,19.3,39.8,2.11,4.31,3.81,8.9,7.99,11.88,2.88,2.05,5.97,3.32,9.52,3.31,14.05-.02,28.1-.01,42.15-.11,9.41-.06,17.35-8.24,17.36-17.69,0-9.31-7.62-16.97-17.19-17.04-13.52-.1-27.05.03-40.57-.05-11.24-.06-20.9-7.44-23.88-18.05-4.43-15.78,7.31-32.03,23.72-32.25,19.76-.27,39.52-.1,59.28-.06,3.85,0,6.3,2.4,6.34,5.93.04,3.46-2.43,5.74-6.4,5.75-9.84.03-19.67.01-29.51.01,0,.02,0,.03,0,.05Z"/>
  <path class="cls-4" d="M248.15,340.4c-.05-5.09,3.9-9.22,8.81-9.2,4.56.02,8.57,4,8.63,8.56.07,5.12-3.85,9.14-8.87,9.13-4.8-.02-8.52-3.71-8.56-8.49Z"/>
  <path class="cls-4" d="M302.99,339.99c0,5.34-3.65,9.01-8.91,8.98-4.53-.02-8.45-4.06-8.47-8.73-.02-4.96,4.14-9.12,9.05-9.05,4.61.07,8.33,4,8.33,8.79Z"/>
  <path class="cls-4" d="M522.88,251.25c0,5.34-3.65,9.01-8.91,8.98-4.53-.02-8.45-4.06-8.47-8.73-.02-4.96,4.14-9.12,9.05-9.05,4.61.07,8.33,4,8.33,8.79Z"/>
</svg>