<?xml version="1.0" encoding="UTF-8"?>
<svg xmlns="http://www.w3.org/2000/svg" version="1.1" viewBox="0 0 200 49.17">
  <defs>
    <style>
      .cls-1 {
        fill: #231f20;
      }

      .cls-2 {
        fill: #d4410a;
      }
    </style>
  </defs>
  <!-- Generator: Adobe Illustrator 28.6.0, SVG Export Plug-In . SVG Version: 1.2.0 Build 709)  -->
  <g>
    <g id="Layer_1">
      <g>
        <g>
          <path class="cls-1" d="M57.96,12.42h28.52v24.72h-28.52V12.42ZM63.67,18.13v13.31h17.12v-13.31h-17.12ZM71.27,10.52h-5.7v-5.71h5.7v5.71ZM78.88,10.52h-5.71v-5.71h5.71v5.71Z"/>
          <path class="cls-1" d="M108.79,21.63v14.56h-3.23v-14.56c0-2.53-.86-4.44-3.39-4.44-4.67,0-7.55,4.71-7.55,9.07v9.93h-3.23V14.85h3.23v4.71h.31c1.28-2.69,3.15-5.61,7.24-5.61,4.83,0,6.58,3.39,6.62,7.67Z"/>
          <path class="cls-1" d="M131.57,33.93l-.74,3.15c-1.21-.31-3.19-1.52-4.28-3.58h-.47c-.9.9-2.65,3.82-6.85,3.82-5.96,0-9.19-4.56-9.19-8.88,0-3.89,2.53-8.22,9.15-8.22,4.01,0,6.19,3.54,6.19,3.54h.43c-.39-3.35-2.14-6.62-7.4-6.62-2.18,0-3.93.51-5.22,1.52l-1.99-2.53c1.87-1.48,4.32-2.22,7.2-2.22,8.45,0,10.75,5.8,10.75,11.6,0,0-.16,3.97-.16,4.71,0,2.96,2.34,3.62,2.57,3.7ZM125.65,28.75c0-2.61-2.49-5.3-6.46-5.3-1.95,0-5.92,1.01-5.92,4.98,0,2.8,2.06,5.65,5.96,5.65,5.02,0,6.42-3.31,6.42-5.33Z"/>
          <path class="cls-1" d="M132.59,12.24v-3.5h3.23v3.5h-3.23ZM132.59,36.19V14.85h3.23v21.34h-3.23Z"/>
          <path class="cls-1" d="M155.29,14.85v21.34c0,2.3.12,9.89-7.4,9.89-6.04,0-8.33-4.36-8.33-4.36l2.02-2.3s1.99,3.43,5.96,3.43c4.67,0,4.48-4.36,4.48-6.66v-4.75h-.27c-1.28,2.73-3.15,5.61-7.24,5.61-4.83,0-6.62-3.35-6.62-7.67v-14.52h3.23v14.52c0,2.53.86,4.44,3.39,4.44,4.63,0,7.55-4.67,7.55-9.03v-9.93h3.23Z"/>
          <path class="cls-1" d="M178.23,33.93l-.74,3.15c-1.21-.31-3.19-1.52-4.28-3.58h-.47c-.9.9-2.65,3.82-6.85,3.82-5.96,0-9.19-4.56-9.19-8.88,0-3.89,2.53-8.22,9.15-8.22,4.01,0,6.19,3.54,6.19,3.54h.43c-.39-3.35-2.14-6.62-7.4-6.62-2.18,0-3.93.51-5.22,1.52l-1.99-2.53c1.87-1.48,4.32-2.22,7.2-2.22,8.45,0,10.75,5.8,10.75,11.6,0,0-.16,3.97-.16,4.71,0,2.96,2.34,3.62,2.57,3.7ZM172.31,28.75c0-2.61-2.49-5.3-6.46-5.3-1.95,0-5.92,1.01-5.92,4.98,0,2.8,2.06,5.65,5.96,5.65,5.02,0,6.42-3.31,6.42-5.33Z"/>
          <path class="cls-1" d="M200,33.93l-.74,3.15c-1.21-.31-3.19-1.52-4.28-3.58h-.47c-.9.9-2.65,3.82-6.85,3.82-5.96,0-9.19-4.56-9.19-8.88,0-3.89,2.53-8.22,9.15-8.22,4.01,0,6.19,3.54,6.19,3.54h.43c-.39-3.35-2.14-6.62-7.4-6.62-2.18,0-3.93.51-5.22,1.52l-1.99-2.53c1.87-1.48,4.32-2.22,7.2-2.22,8.45,0,10.75,5.8,10.75,11.6,0,0-.16,3.97-.16,4.71,0,2.96,2.34,3.62,2.57,3.7ZM194.08,28.75c0-2.61-2.49-5.3-6.46-5.3-1.95,0-5.92,1.01-5.92,4.98,0,2.8,2.06,5.65,5.96,5.65,5.02,0,6.42-3.31,6.42-5.33Z"/>
        </g>
        <path class="cls-2" d="M40.19,4.79c-3.88,0-7.75,0-11.63,0-3.25,0-5.65,2.35-5.65,5.52,0,3.12,2.35,5.4,5.62,5.41,5.44.01,10.88.01,16.32.02,5.59,0,10.3,4.04,11.35,9.69.95,5.16-2.28,11.02-7.23,12.82-1.47.53-3.1.85-4.67.87-5.69.1-11.38.12-17.07.03-4.26-.07-7.47-2.04-9.38-5.93-3.01-6.13-6.01-12.25-9-18.39-.51-1.06-1.39-1.37-2.44-1.39-1.35-.04-2.7,0-4.05-.02C.94,13.39-.04,12.43,0,11.11c.04-1.32.92-2.12,2.41-2.13,1.64-.02,3.27-.03,4.91,0,2.42.04,4.23,1.12,5.3,3.31,2.62,5.37,5.19,10.75,7.81,16.12.85,1.74,1.54,3.6,3.23,4.81,1.17.83,2.42,1.34,3.86,1.34,5.69,0,11.38,0,17.07-.04,3.81-.03,7.03-3.34,7.03-7.16,0-3.77-3.08-6.87-6.96-6.9-5.48-.04-10.95.01-16.43-.02-4.55-.02-8.46-3.01-9.67-7.31C16.77,6.73,21.52.15,28.16.06c8-.11,16-.04,24-.03,1.56,0,2.55.97,2.57,2.4.02,1.4-.98,2.32-2.59,2.33-3.98.01-7.97,0-11.95,0,0,0,0,.01,0,.02Z"/>
        <path class="cls-2" d="M26.22,45.7c-.02-2.06,1.58-3.73,3.57-3.73,1.85,0,3.47,1.62,3.49,3.47.03,2.07-1.56,3.7-3.59,3.7-1.94,0-3.45-1.5-3.47-3.44Z"/>
        <path class="cls-2" d="M48.42,45.53c0,2.16-1.48,3.65-3.61,3.64-1.84,0-3.42-1.64-3.43-3.53,0-2.01,1.68-3.69,3.67-3.66,1.87.03,3.37,1.62,3.37,3.56Z"/>
        <path class="cls-2" d="M137.46,9.6c0,2.16-1.48,3.65-3.61,3.64-1.84,0-3.42-1.64-3.43-3.53,0-2.01,1.68-3.69,3.67-3.66,1.87.03,3.37,1.62,3.37,3.56Z"/>
      </g>
    </g>
  </g>
</svg>